<?xml version="1.0"?>
<svg xmlns="http://www.w3.org/2000/svg" width="512" height="512" viewBox="0 0 512 512"><g><path d="M340.116,217.14l-128-76.8A8,8,0,0,0,200,147.2V300.8a8,8,0,0,0,12.116,6.86l128-76.8a8,8,0,0,0,0-13.72ZM216,286.67V161.33L320.451,224Z"/><path d="M464,56H48A40.045,40.045,0,0,0,8,96V352a40.045,40.045,0,0,0,40,40H464a40.045,40.045,0,0,0,40-40V96A40.045,40.045,0,0,0,464,56Zm24,296a24.028,24.028,0,0,1-24,24H48a24.027,24.027,0,0,1-24-24V96A24.027,24.027,0,0,1,48,72H464a24.027,24.027,0,0,1,24,24Z"/><path d="M448,424H136V408a8,8,0,0,0-8-8H104a8,8,0,0,0-8,8v16H32a8,8,0,0,0,0,16H96v16a8,8,0,0,0,8,8h24a8,8,0,0,0,8-8V440H448a8,8,0,0,0,0-16ZM120,448h-8V416h8Z"/><path d="M480,424h-8a8,8,0,0,0,0,16h8a8,8,0,0,0,0-16Z"/><path d="M104,88H48a8,8,0,0,0,0,16h56a8,8,0,0,0,0-16Z"/><path d="M136,88h-8a8,8,0,0,0,0,16h8a8,8,0,0,0,0-16Z"/></g></svg>
